<svg width="1102" height="1102" viewBox="0 0 1102 1102" fill="none" xmlns="http://www.w3.org/2000/svg">
<path d="M513.333 104C384.4 116.267 271.2 178.267 194.667 278.667C103.467 398.267 78.4 554.4 127.333 697.067C154.8 777.333 204.533 847.2 274 903.067C279.867 907.867 284.8 911.6 284.933 911.467C285.067 911.333 283.067 906.933 280.533 901.6C269.333 878 262.4 850.933 251.867 788.267C247.467 762.133 242.4 733.467 240.533 724.667C231.333 679.867 217.733 645.2 200 621.467C191.867 610.667 173.867 592.667 166.933 588.533C164.533 587.2 162.667 585.733 162.667 585.2C162.667 584.133 197.067 574.533 219.333 569.467C299.467 551.067 377.2 548.533 437.333 562.267C557.333 589.6 633.2 675.467 645.467 798C648.667 830.267 645.333 876.4 637.333 911.333C634.267 924.667 622.533 962.933 621.733 962.133C621.467 961.867 620.267 954.8 619.2 946.533C605.867 842.533 560.267 763.733 483.733 712.533C456.133 694 415.067 675.867 381.2 667.333C369.067 664.267 339.067 658.533 335.6 658.667C334.667 658.8 340.267 661.2 348 664.133C417.867 690.667 472.8 735.067 509.867 794.933C535.067 835.733 551.333 880.8 557.867 928.133L558.8 934.4L539.067 941.2C488.267 959.067 440.933 969.6 404.667 971.067L396.667 971.333L411.333 976.267C474.267 997.6 547.467 1003.87 616 993.867C747.6 974.8 866.267 895.733 934.533 781.733C1001.33 670.133 1016.8 536.267 977.067 413.333C926.267 256.4 793.067 139.333 632 110.133C598.133 104 543.6 101.2 513.333 104ZM634.8 213.333C756 225.6 856.267 312.133 886 430C906.933 512.8 890.267 599.067 839.867 669.867C830 683.733 806 709.067 790.4 722.267C757.867 749.733 708.667 773.867 668.133 782C656 784.533 654.667 784 654.667 777.6C654.667 772.533 649.333 749.6 644.533 733.733C640.133 719.2 640 718 640 696.133V673.6L647.067 671.333C665.867 665.2 686.533 650.933 697.6 636.4C712 617.733 718.667 598 718.667 573.733C718.667 523.867 694.4 493.2 635.733 469.2C597.067 453.333 581.333 443.333 575.867 431.333C572.667 424.267 572.667 411.733 575.867 404.667C579.333 396.933 589.6 388.4 598.533 385.6C608.667 382.533 633.067 382.533 646.667 385.733C654.533 387.6 671.867 395.067 688.267 403.733C688.667 403.867 693.467 391.067 698.667 375.067C704 359.067 708.667 345.333 708.933 344.533C709.2 343.733 703.333 340 695.733 336.267C682.133 329.6 662.8 323.867 647.067 321.867L640 320.933V289.867V258.667H606.667H573.333V293.2V327.6L561.067 333.6C526.933 350.133 508.267 375.467 503.733 411.333C502.4 421.6 502.533 425.733 504.267 436.133C508 458.267 515.2 472.267 531.067 488C545.6 502.4 563.467 513.067 590.4 523.467C633.867 540.267 647.867 552.8 648.4 575.067C648.533 579.6 647.733 586.267 646.667 590C644.133 599.067 634.133 609.067 623.333 613.467C616 616.4 613.467 616.667 593.733 616.667C574.133 616.667 571.867 616.4 568.933 614C526.933 580.267 496.267 564.933 446 552.133C417.733 545.067 372.933 540.533 340.667 541.6L321.6 542.267L320.667 538.8C320.267 536.933 319.467 523.067 319.067 508C318.267 476.667 320.133 458 326.8 430.8C351.733 329.2 431.733 248.267 533.6 221.467C546.8 218 566.8 214.4 581.333 212.933C591.867 211.867 622 212.133 634.8 213.333Z" fill="#1D9634"/>
</svg>
